HIERARCHY
ROOT Hips
{
	OFFSET 0.000000 0.000000 0.000000
	CHANNELS 6 Xposition Yposition Zposition Zrotation Yrotation Xrotation 
	JOINT LHipJoint
	{
		OFFSET 0.000000 0.000000 0.000000
		CHANNELS 3 Zrotation Yrotation Xrotation
		JOINT LeftUpLeg
		{
			OFFSET 1.363060 -1.794630 0.839290
			CHANNELS 3 Zrotation Yrotation Xrotation
			JOINT LeftLeg
			{
				OFFSET 2.448110 -6.726130 0.000000
				CHANNELS 3 Zrotation Yrotation Xrotation
				JOINT LeftFoot
				{
					OFFSET 2.562200 -7.039590 0.000000
					CHANNELS 3 Zrotation Yrotation Xrotation
					JOINT LeftToeBase
					{
						OFFSET 0.157640 -0.433110 2.322550
						CHANNELS 3 Zrotation Yrotation Xrotation
						End Site
						{
							OFFSET 0.000000 0.000000 0.000000
						}
					}
				}
			}
		}
	}
	JOINT RHipJoint
	{
		OFFSET 0.000000 0.000000 0.000000
		CHANNELS 3 Zrotation Yrotation Xrotation
		JOINT RightUpLeg
		{
			OFFSET -1.305520 -1.794630 0.839290
			CHANNELS 3 Zrotation Yrotation Xrotation
			JOINT RightLeg
			{
				OFFSET -2.542530 -6.985550 0.000000
				CHANNELS 3 Zrotation Yrotation Xrotation
				JOINT RightFoot
				{
					OFFSET -2.568260 -7.056230 0.000000
					CHANNELS 3 Zrotation Yrotation Xrotation
					JOINT RightToeBase
					{
						OFFSET -0.164730 -0.452590 2.363150
						CHANNELS 3 Zrotation Yrotation Xrotation
						End Site
						{
							OFFSET 0.000000 0.000000 0.000000
						}
					}
				}
			}
		}
	}
}
MOTION
Frames: 33
Frame Time: 0.008333
16.353645 18.156898 1.815748 -14.237299 -82.809436 13.177189 -11.943040 1.772098 -0.567448 -4.101076 23.008169 -20.201231 -1.385588 0.819449 13.289472 0.829823 1.973121 23.110945 0.667201 -0.000000 -51.899800 10.296273 -2.029128 -2.394528 6.719489 -26.677747 -16.522849 1.997424 -1.068045 9.013704 -0.498321 -0.260374 31.070120 -0.160300 -0.000000 -71.855000
16.194579 17.908597 1.799270 -16.484400 -82.823831 14.719511 -11.912162 1.744330 -0.517704 -3.478525 22.351697 -19.425327 -1.323703 0.819934 15.665505 0.815301 3.840593 17.401507 1.339800 -0.000001 -50.499500 10.164092 -2.120980 -2.350244 6.736661 -25.759958 -15.798482 1.904056 -1.181567 11.782876 -0.482157 -1.678173 25.569476 -0.994400 -0.000000 -72.245700
16.045544 17.660165 1.779707 -18.551764 -82.855030 16.035630 -11.864544 1.665839 -0.543228 -2.898008 22.044443 -18.944932 -1.323886 0.830429 18.536223 0.844379 5.318265 11.227001 1.502100 0.000000 -48.520900 10.027331 -2.145193 -2.379309 6.779328 -25.176850 -15.413177 1.843996 -1.307194 15.153004 -0.497125 -2.746516 19.432138 -1.408400 -0.000000 -72.159400
15.906921 17.414457 1.756777 -20.366157 -82.898793 17.080778 -11.810478 1.549862 -0.632547 -2.335261 22.021789 -18.771914 -1.380863 0.867843 21.857302 0.922866 6.424859 4.915716 1.229499 0.000000 -45.861800 9.903480 -2.111436 -2.470629 6.808560 -24.885378 -15.360713 1.813305 -1.450586 19.031085 -0.557457 -3.502384 13.016751 -1.451599 0.000000 -71.395500
15.780172 17.174554 1.730023 -21.745941 -82.952833 17.633241 -11.763331 1.418667 -0.793227 -1.743282 22.208089 -18.761120 -1.479200 0.951512 25.484231 1.042898 7.222366 -1.162632 0.658100 0.000000 -42.714700 9.815665 -2.027760 -2.648197 6.718566 -24.913150 -15.480895 1.803161 -1.617853 23.214784 -0.656768 -3.967028 6.729038 -1.207500 0.000000 -70.019801
15.663617 16.944168 1.700678 -22.870892 -83.004824 17.958175 -11.730262 1.286575 -0.987510 -1.124730 22.482747 -18.980805 -1.594929 1.089048 29.323975 1.190844 7.814841 -6.702761 -0.059200 0.000000 -39.588300 9.758486 -1.925050 -2.855568 6.586776 -25.056070 -15.797172 1.799623 -1.808682 27.532306 -0.799057 -4.353855 0.884942 -0.825000 0.000000 -68.212200
15.556455 16.726733 1.669449 -23.763944 -83.045560 18.077496 -11.718628 1.169689 -1.202686 -0.463190 22.772612 -19.336856 -1.701667 1.280844 33.211060 1.344471 8.265837 -11.451746 -0.794300 0.000000 -37.097000 9.733705 -1.819222 -3.086748 6.405402 -25.274188 -16.203709 1.788531 -2.019606 31.789200 -0.967415 -4.724080 -4.267580 -0.377900 0.000000 -66.345300
15.457197 16.525247 1.637267 -24.451280 -83.066996 18.016205 -11.730400 1.078885 -1.423033 0.241643 23.025789 -19.743739 -1.778213 1.516194 36.989401 1.480861 8.605252 -15.276639 -1.453000 0.000000 -35.630900 9.738597 -1.721054 -3.333041 6.174365 -25.544292 -16.615215 1.758582 -2.242034 35.830499 -1.140631 -5.100334 -8.589678 0.079000 0.000001 -64.774600
15.363949 16.342121 1.604844 -24.926984 -83.064058 17.758423 -11.763022 1.020678 -1.636086 0.982818 23.214388 -20.107982 -1.813020 1.777281 40.519164 1.582375 8.836621 -18.160137 -1.977500 -0.000000 -35.290000 9.769454 -1.634682 -3.589542 5.880601 -25.867950 -16.944920 1.704293 -2.463937 39.533720 -1.297192 -5.464628 -12.038362 0.504300 -0.000000 -63.774900
15.273518 16.179338 1.572586 -25.180429 -83.044173 17.325393 -11.806604 0.999164 -1.816901 1.712365 23.323338 -20.420696 -1.804954 2.041463 43.704030 1.643629 8.967534 -20.181321 -2.347300 -0.000000 -35.959201 9.819434 -1.564968 -3.821800 5.554714 -26.175354 -17.203275 1.623873 -2.673116 42.850012 -1.430362 -5.828519 -14.677726 0.873900 0.000000 -63.385000
15.184596 16.037612 1.540711 -25.162751 -83.003068 16.624721 -11.855913 1.015308 -1.969102 2.435367 23.354987 -20.556698 -1.760813 2.291458 46.451837 1.664416 8.996375 -21.476853 -2.568000 0.000000 -37.341500 9.887192 -1.506795 -4.044993 5.146173 -26.521182 -17.264828 1.525555 -2.858063 45.694355 -1.525912 -6.123127 -16.595174 1.168200 0.000000 -63.595400
15.095173 15.917082 1.509234 -24.875897 -82.942900 15.659555 -11.902888 1.067839 -2.085521 3.130237 23.308954 -20.483381 -1.692146 2.512537 48.723800 1.655059 8.950324 -22.222195 -2.671100 -0.000000 -39.122500 9.967784 -1.460008 -4.247672 4.660220 -26.878439 -17.100433 1.418235 -3.011190 48.046681 -1.587198 -6.342344 -17.941771 1.386900 -0.000000 -64.220700
15.002837 15.817487 1.478219 -24.370261 -82.868615 14.504237 -11.940118 1.154442 -2.153021 3.765904 23.189060 -20.222218 -1.612007 2.693466 50.516334 1.630930 8.875137 -22.601429 -2.701399 -0.000000 -41.013100 10.054001 -1.429529 -4.405508 4.139336 -27.191423 -16.736843 1.310860 -3.127811 49.918320 -1.626788 -6.513977 -18.887083 1.547401 -0.000000 -65.043100
14.907327 15.737258 1.447574 -23.687573 -82.775571 13.181077 -11.965562 1.268890 -2.179941 4.348742 22.994364 -19.734615 -1.532281 2.831781 51.841107 1.605937 8.818539 -22.788670 -2.704700 0.000000 -42.711700 10.141924 -1.413299 -4.528521 3.582696 -27.462821 -16.128060 1.213041 -3.207282 51.311970 -1.653727 -6.649008 -19.583001 1.669300 0.000000 -65.871900
14.807236 15.675206 1.417359 -22.916335 -82.668970 11.806992 -11.976594 1.405867 -2.156998 4.858541 22.729358 -19.076278 -1.461812 2.925306 52.738014 1.593779 8.833612 -22.923238 -2.721600 0.000001 -44.059600 10.223627 -1.417400 -4.596017 3.054939 -27.635881 -15.337112 1.129617 -3.250461 52.272943 -1.685344 -6.808788 -20.169241 1.783800 0.000000 -66.540400
14.703151 15.629211 1.387420 -22.106561 -82.547347 10.423330 -11.974333 1.557818 -2.094084 5.303381 22.393321 -18.248584 -1.405664 2.978775 53.251510 1.602872 8.957897 -23.103441 -2.780200 -0.000000 -44.935801 10.295384 -1.439158 -4.618136 2.573653 -27.704873 -14.362094 1.063309 -3.261188 52.837267 -1.732518 -7.033012 -20.741668 1.914300 0.000000 -66.955400
14.595324 15.597466 1.357654 -21.317346 -82.413831 9.098840 -11.960162 1.718258 -1.993969 5.683453 21.989683 -17.291850 -1.365122 2.997146 53.435639 1.637920 9.212579 -23.378921 -2.896600 0.000000 -45.319100 10.352714 -1.478100 -4.593841 2.178779 -27.647788 -13.248644 1.012929 -3.244059 53.058463 -1.806288 -7.370846 -21.358862 2.083000 0.000000 -67.062600
14.484644 15.578148 1.327923 -20.585199 -82.271901 7.871231 -11.936409 1.881354 -1.863818 6.005883 21.522943 -16.237339 -1.338441 2.987317 53.344685 1.698896 9.596386 -23.754545 -3.073600 0.000000 -45.243100 10.393474 -1.530500 -4.529591 1.892835 -27.458725 -12.031765 0.974688 -3.204736 52.990617 -1.913137 -7.854708 -22.036788 2.304101 -0.000000 -66.854900
14.372349 15.569566 1.298075 -19.924914 -82.124971 6.752223 -11.905497 2.042612 -1.712557 6.280602 20.999723 -15.111207 -1.321906 2.956784 53.029804 1.781617 10.087244 -24.198853 -3.301900 0.000000 -44.791700 10.417673 -1.590858 -4.435339 1.724064 -27.143928 -10.741819 0.943249 -3.149395 52.686759 -2.054982 -8.497959 -22.756665 2.582800 0.000000 -66.362799
14.259736 15.570211 1.267838 -19.329648 -81.977156 5.728184 -11.869493 2.199219 -1.550644 6.519096 20.429504 -13.931479 -1.311142 2.913137 52.535475 1.878356 10.646099 -24.655973 -3.561300 0.000000 -44.088000 10.427478 -1.652454 -4.324002 1.663476 -26.721610 -9.399616 0.912843 -3.084196 52.195134 -2.228533 -9.290921 -23.473893 2.913500 0.000000 -65.647300
14.147806 15.578994 1.237139 -18.793049 -81.833493 4.789027 -11.830211 2.349987 -1.385423 6.731301 19.826497 -12.718420 -1.301763 2.862329 51.898961 1.979325 11.225756 -25.057985 -3.823800 -0.000000 -43.286000 10.425340 -1.710944 -4.203814 1.701080 -26.209423 -8.030418 0.878222 -3.014589 51.559403 -2.427275 -10.210938 -24.131266 3.281600 -0.000000 -64.793500
14.037564 15.594888 1.205844 -18.293000 -81.699748 3.903116 -11.788808 2.494881 -1.226245 6.928414 19.207734 -11.477012 -1.290351 2.809858 51.147081 2.073854 11.777281 -25.337426 -4.057000 0.000001 -42.553700 10.415136 -1.761504 -4.086207 1.809558 -25.636054 -6.641575 0.835842 -2.945243 50.812247 -2.640492 -11.215468 -24.670601 3.662200 0.000000 -63.903500
13.929640 15.616896 1.173866 -17.789399 -81.582800 3.020757 -11.745072 2.635316 -1.082006 7.116938 18.592402 -10.205180 -1.274749 2.760285 50.299079 2.152695 12.260515 -25.437934 -4.231100 0.000000 -42.044500 10.401815 -1.799719 -3.982746 1.950111 -25.039005 -5.232117 0.784622 -2.879418 49.977174 -2.854448 -12.244551 -25.045851 4.022900 -0.000000 -63.064600
13.824242 15.644369 1.141356 -17.275116 -81.491806 2.132723 -11.699449 2.772359 -0.955857 7.301978 18.004798 -8.910962 -1.253493 2.715278 49.369083 2.209744 12.650626 -25.320638 -4.324200 0.000000 -41.885700 10.387441 -1.826025 -3.894186 2.104371 -24.434583 -3.811980 0.724840 -2.818660 49.069092 -3.058514 -13.252068 -25.226676 4.334800 0.000000 -62.367700
13.721224 15.676515 1.108483 -16.727660 -81.436780 1.215628 -11.651406 2.907473 -0.850708 7.484193 17.468527 -7.598650 -1.225992 2.675869 48.368855 2.243029 12.942636 -24.967346 -4.327200 -0.000001 -42.149300 10.374500 -1.840637 -3.821845 2.247498 -23.843820 -2.383235 0.658961 -2.763105 48.095545 -3.242626 -14.187312 -25.207703 4.573000 0.000000 -61.859200
13.620056 15.712623 1.075526 -16.134827 -81.428489 0.262937 -11.600683 3.041553 -0.766472 7.661465 17.008242 -6.280987 -1.191936 2.641659 47.312591 2.255137 13.153001 -24.381228 -4.244000 0.000000 -42.853100 10.363906 -1.845796 -3.761553 2.366482 -23.275502 -0.953760 0.590522 -2.711582 47.059328 -3.400690 -15.013405 -25.006203 4.724200 0.000000 -61.549400
13.520178 15.751909 1.042794 -15.489840 -81.478789 -0.722534 -11.547456 3.174715 -0.701170 7.830138 16.648819 -4.979455 -1.150985 2.611403 46.219881 2.252351 13.316198 -23.582237 -4.090000 0.000000 -43.961700 10.355444 -1.844878 -3.705223 2.459904 -22.726618 0.462884 0.523346 -2.662190 45.962446 -3.531010 -15.711166 -24.658228 4.788900 0.000000 -61.419400
13.420867 15.793477 1.010562 -14.783925 -81.594974 -1.736998 -11.492005 3.306615 -0.651237 7.984652 16.409803 -3.726690 -1.102800 2.583952 45.121740 2.243388 13.478608 -22.605368 -3.886699 0.000000 -45.392999 10.348752 -1.841089 -3.644608 2.528780 -22.196331 1.849039 0.461908 -2.612183 44.807885 -3.634118 -16.268193 -24.217930 4.779000 0.000001 -61.395000
13.321480 15.836581 0.979127 -14.015223 -81.784538 -2.765219 -11.435583 3.436094 -0.612442 8.121323 16.309966 -2.563617 -1.047019 2.557934 44.057394 2.237625 13.690279 -21.492910 -3.656300 -0.000000 -47.035100 10.342337 -1.838571 -3.569061 2.586354 -21.671771 3.181383 0.409707 -2.558979 43.601997 -3.714258 -16.692058 -23.742276 4.716200 -0.000000 -61.406900
13.221736 15.880446 0.948608 -13.171037 -82.054891 -3.806205 -11.379337 3.561620 -0.581554 8.234511 16.364786 -1.533982 -0.983525 2.532541 43.072068 2.243766 13.999009 -20.288010 -3.416900 0.000000 -48.751400 10.335670 -1.840294 -3.467970 2.648947 -21.130509 4.433135 0.368602 -2.500559 42.357441 -3.777921 -17.005526 -23.283380 4.625900 -0.000000 -61.404901
13.121355 15.924285 0.919070 -12.247835 -82.402225 -4.849208 -11.324975 3.681317 -0.555350 8.323259 16.578018 -0.687333 -0.912872 2.508300 42.223469 2.267878 14.436686 -19.036883 -3.180201 -0.000000 -50.389100 10.327776 -1.848486 -3.336868 2.727284 -20.571309 5.582519 0.340766 -2.434816 41.088319 -3.829704 -17.222222 -22.890776 4.531400 -0.000000 -61.301400
13.020717 15.967504 0.890342 -11.207774 -82.826927 -5.925722 -11.272428 3.793580 -0.533290 8.380591 16.949578 -0.062974 -0.836511 2.486358 41.562478 2.313788 15.023852 -17.776928 -2.951000 -0.000001 -51.786900 10.320625 -1.863146 -3.171983 2.829179 -19.979086 6.608509 0.325336 -2.361049 39.816512 -3.875235 -17.369017 -22.592552 4.451000 0.000000 -61.079200
12.920291 16.009422 0.862293 -10.041979 -83.317488 -7.041955 -11.222707 3.895872 -0.515259 8.405744 17.465644 0.303048 -0.756772 2.468903 41.141560 2.381426 15.755522 -16.545670 -2.729300 0.000001 -52.775600 10.314648 -1.883813 -2.976244 2.957946 -19.359558 7.498942 0.321668 -2.279042 38.561806 -3.917323 -17.460557 -22.404195 4.395600 0.000000 -60.707201
